HIERARCHY
ROOT Hips
{
	OFFSET 0.000000 0.000000 0.000000
	CHANNELS 6 Xposition Yposition Zposition Zrotation Yrotation Xrotation 
	JOINT LHipJoint
	{
		OFFSET 0.000000 0.000000 0.000000
		CHANNELS 3 Zrotation Yrotation Xrotation
		JOINT LeftUpLeg
		{
			OFFSET 1.363060 -1.794630 0.839290
			CHANNELS 3 Zrotation Yrotation Xrotation
			JOINT LeftLeg
			{
				OFFSET 2.448110 -6.726130 0.000000
				CHANNELS 3 Zrotation Yrotation Xrotation
				JOINT LeftFoot
				{
					OFFSET 2.562200 -7.039590 0.000000
					CHANNELS 3 Zrotation Yrotation Xrotation
					JOINT LeftToeBase
					{
						OFFSET 0.157640 -0.433110 2.322550
						CHANNELS 3 Zrotation Yrotation Xrotation
						End Site
						{
							OFFSET 0.000000 0.000000 0.000000
						}
					}
				}
			}
		}
	}
	JOINT RHipJoint
	{
		OFFSET 0.000000 0.000000 0.000000
		CHANNELS 3 Zrotation Yrotation Xrotation
		JOINT RightUpLeg
		{
			OFFSET -1.305520 -1.794630 0.839290
			CHANNELS 3 Zrotation Yrotation Xrotation
			JOINT RightLeg
			{
				OFFSET -2.542530 -6.985550 0.000000
				CHANNELS 3 Zrotation Yrotation Xrotation
				JOINT RightFoot
				{
					OFFSET -2.568260 -7.056230 0.000000
					CHANNELS 3 Zrotation Yrotation Xrotation
					JOINT RightToeBase
					{
						OFFSET -0.164730 -0.452590 2.363150
						CHANNELS 3 Zrotation Yrotation Xrotation
						End Site
						{
							OFFSET 0.000000 0.000000 0.000000
						}
					}
				}
			}
		}
	}
	JOINT LowerBack
	{
		OFFSET 0.000000 0.000000 0.000000
		CHANNELS 3 Zrotation Yrotation Xrotation
		JOINT Spine
		{
			OFFSET 0.028270 2.035590 -0.193380
			CHANNELS 3 Zrotation Yrotation Xrotation
			JOINT Spine1
			{
				OFFSET 0.056720 2.048850 -0.042750
				CHANNELS 3 Zrotation Yrotation Xrotation
				JOINT Neck
				{
					OFFSET 0.000000 0.000000 0.000000
					CHANNELS 3 Zrotation Yrotation Xrotation
					JOINT Neck1
					{
						OFFSET -0.054170 1.746240 0.172020
						CHANNELS 3 Zrotation Yrotation Xrotation
						JOINT Head
						{
							OFFSET 0.104070 1.761360 -0.123970
							CHANNELS 3 Zrotation Yrotation Xrotation
							End Site
							{
								OFFSET 0.000000 0.000000 0.000000
							}
						}
					}
				}
				JOINT LeftShoulder
				{
					OFFSET 0.000000 0.000000 0.000000
					CHANNELS 3 Zrotation Yrotation Xrotation
					JOINT LeftArm
					{
						OFFSET 3.362410 1.200890 -0.311210
						CHANNELS 3 Zrotation Yrotation Xrotation
						JOINT LeftForeArm
						{
							OFFSET 4.983000 -0.000000 -0.000000
							CHANNELS 3 Zrotation Yrotation Xrotation
							JOINT LeftHand
							{
								OFFSET 3.483560 -0.000000 -0.000000
								CHANNELS 3 Zrotation Yrotation Xrotation
								JOINT LeftFingerBase
								{
									OFFSET 0.000000 0.000000 0.000000
									CHANNELS 3 Zrotation Yrotation Xrotation
									JOINT LeftHandIndex1
									{
										OFFSET 0.715260 -0.000000 -0.000000
										CHANNELS 3 Zrotation Yrotation Xrotation
										End Site
										{
											OFFSET 0.000000 0.000000 0.000000
										}
									}
								}
								JOINT LThumb
								{
									OFFSET 0.000000 0.000000 0.000000
									CHANNELS 3 Zrotation Yrotation Xrotation
									End Site
									{
										OFFSET 0.000000 0.000000 0.000000
									}
								}
							}
						}
					}
				}
				JOINT RightShoulder
				{
					OFFSET 0.000000 0.000000 0.000000
					CHANNELS 3 Zrotation Yrotation Xrotation
					JOINT RightArm
					{
						OFFSET -3.136600 1.374050 -0.404650
						CHANNELS 3 Zrotation Yrotation Xrotation
						JOINT RightForeArm
						{
							OFFSET -5.241900 -0.000000 -0.000000
							CHANNELS 3 Zrotation Yrotation Xrotation
							JOINT RightHand
							{
								OFFSET -3.444170 -0.000000 -0.000000
								CHANNELS 3 Zrotation Yrotation Xrotation
								JOINT RightFingerBase
								{
									OFFSET 0.000000 0.000000 0.000000
									CHANNELS 3 Zrotation Yrotation Xrotation
									JOINT RightHandIndex1
									{
										OFFSET -0.622530 -0.000000 -0.000000
										CHANNELS 3 Zrotation Yrotation Xrotation
										End Site
										{
											OFFSET 0.000000 0.000000 0.000000
										}
									}
								}
								JOINT RThumb
								{
									OFFSET 0.000000 0.000000 0.000000
									CHANNELS 3 Zrotation Yrotation Xrotation
									End Site
									{
										OFFSET 0.000000 0.000000 0.000000
									}
								}
							}
						}
					}
				}
			}
		}
	}
}
MOTION
Frames: 5
Frame Time: 0.008333
4.886480 15.407501 -6.621799 -168.998174 44.776704 -146.956023 -10.491782 -1.857059 -3.354687 -24.697386 9.254869 -73.325426 -2.214782 5.119930 55.134741 4.672667 16.471574 -26.703985 174.956500 0.000001 -7.285200 8.707015 -0.657399 -7.674851 2.801647 -22.835465 -32.546136 0.106798 -5.221612 64.699347 0.290511 14.354834 16.250856 5.624100 0.000000 -93.810200 1.554395 -0.607990 15.038035 -0.638137 -0.390174 -0.315200 -6.711383 -0.273809 -2.051759 9.736514 -5.559371 -1.878604 -2.215557 -0.209255 1.102725 0.000000 0.000000 0.000000 2.437390 6.568302 1.084790 -71.211280 26.682946 12.919982 -179.975364 -85.226588 179.968266 8.936874 0.268733 0.005340 -0.114647 0.216626 0.000000 0.000000 0.000000 0.000000 0.000000 0.000000 0.000000 4.547995 -1.075939 -1.759419 67.262534 13.593013 6.201293 179.537319 73.649954 179.952133 -6.372763 3.115591 -0.204449 0.115809 -0.498726 -0.000000 0.000000 0.000000 0.000000 0.000000 0.000000 0.000000 
4.980381 15.326392 -6.760095 -168.968599 44.575642 -147.592874 -10.507370 -1.870685 -3.659807 -24.698764 9.941562 -73.078248 -2.071828 5.333990 57.430203 4.611922 16.340905 -27.687825 174.624600 0.000000 -8.400800 8.843198 -0.644644 -7.631883 1.838878 -22.731279 -31.674509 -0.038226 -5.243564 65.699549 0.234538 15.086845 17.344343 6.200900 -0.000001 -93.048400 1.322581 -0.573786 15.274996 -0.700214 -0.341837 -0.304928 -6.787616 -0.222895 -2.151358 9.721593 -5.309699 -1.742036 -2.275739 -0.214515 1.139054 0.000000 0.000000 0.000000 2.289926 6.421581 1.088440 -71.443082 25.865064 12.309218 -179.969078 -84.984045 179.967132 9.066442 0.242670 0.002970 -0.117871 0.221369 0.000000 0.000000 0.000000 0.000000 0.000000 0.000000 0.000000 4.655330 -0.806916 -1.774601 68.052361 12.601308 6.307956 179.559485 73.805770 179.954297 -6.036071 3.597963 -0.219653 0.101677 -0.506831 -0.000000 0.000000 0.000000 0.000000 0.000000 0.000000 0.000000 
5.073341 15.250590 -6.894846 -169.055910 44.324828 -148.286643 -10.514959 -1.867026 -3.954662 -24.756928 10.507849 -72.734391 -1.929330 5.522809 59.655983 4.590661 16.333983 -28.826042 174.215400 -0.000001 -9.161700 8.981406 -0.622463 -7.584717 0.864396 -22.605122 -30.870161 -0.180122 -5.271954 66.695058 0.165975 15.694002 18.513759 6.775800 0.000000 -92.162400 1.075886 -0.544333 15.505522 -0.764366 -0.299206 -0.291709 -6.860657 -0.177366 -2.236528 9.685742 -5.063930 -1.588048 -2.342389 -0.220241 1.178914 0.000000 0.000000 0.000000 2.097838 6.254315 1.086026 -71.585047 24.773544 11.772081 -179.964934 -84.920748 179.965782 9.252028 0.292715 0.006907 -0.123000 0.225004 -0.000000 0.000000 0.000000 0.000000 0.000000 0.000000 0.000000 4.793038 -0.574689 -1.791003 68.918147 11.584641 6.361426 179.591180 74.141262 179.956122 -5.731324 4.125195 -0.235460 0.087285 -0.514569 -0.000000 0.000000 0.000000 0.000000 0.000000 0.000000 0.000000 
5.165157 15.181662 -7.026037 -169.256942 44.013185 -149.024438 -10.517646 -1.849202 -4.229375 -24.846790 10.928794 -72.269938 -1.790772 5.678153 61.735564 4.606624 16.451879 -30.060488 173.740700 -0.000000 -9.569501 9.119245 -0.591532 -7.535661 -0.101058 -22.456043 -30.143265 -0.317868 -5.306819 67.682757 0.085871 16.135602 19.732380 7.317400 0.000001 -90.939100 0.821490 -0.517797 15.724550 -0.828759 -0.260696 -0.275068 -6.928569 -0.135625 -2.303110 9.627929 -4.836096 -1.421024 -2.415404 -0.226354 1.221086 0.000000 0.000000 0.000000 1.857852 6.063802 1.074596 -71.640093 23.401870 11.306422 -179.963044 -85.043188 179.964196 9.490674 0.415927 0.017148 -0.129992 0.227593 -0.000000 0.000000 0.000000 0.000000 0.000000 0.000000 0.000000 4.966489 -0.396711 -1.805698 69.841270 10.555407 6.356803 179.631451 74.674977 179.957470 -5.478675 4.668517 -0.251370 0.073387 -0.521011 -0.000000 0.000000 0.000000 0.000000 0.000000 0.000000 0.000000 
5.255463 15.120658 -7.154086 -169.557015 43.633674 -149.788327 -10.519077 -1.821001 -4.476641 -24.945750 11.191855 -71.669626 -1.659630 5.794842 63.610863 4.654087 16.682890 -31.329326 173.216400 -0.000001 -9.629000 9.253996 -0.552991 -7.486422 -1.035629 -22.281504 -29.501198 -0.450696 -5.347486 68.657780 -0.004547 16.371635 20.969143 7.788400 0.000000 -89.254900 0.567556 -0.492565 15.928420 -0.891135 -0.224802 -0.253611 -6.988334 -0.096053 -2.344881 9.546926 -4.640351 -1.248776 -2.493881 -0.232688 1.263422 0.000000 0.000000 0.000000 1.573537 5.861568 1.051762 -71.623196 21.743651 10.910733 -179.963757 -85.357091 179.962354 9.775421 0.605203 0.033993 -0.138708 0.229327 -0.000000 0.000000 0.000000 0.000000 0.000000 0.000000 0.000000 5.177388 -0.289015 -1.816973 70.797818 9.530659 6.295507 179.679002 75.425229 179.958230 -5.302665 5.193364 -0.267681 0.060843 -0.525126 -0.000000 0.000000 0.000000 0.000000 0.000000 0.000000 0.000000 
